<?xml version="1.0" standalone="no"?>
<!DOCTYPE svg PUBLIC "-//W3C//DTD SVG 20010904//EN"
 "http://www.w3.org/TR/2001/REC-SVG-20010904/DTD/svg10.dtd">
<svg version="1.0" xmlns="http://www.w3.org/2000/svg"
 width="587.000000pt" height="587.000000pt" viewBox="0 0 587.000000 587.000000"
 preserveAspectRatio="xMidYMid meet">
<metadata>
Created by potrace 1.14, written by Peter Selinger 2001-2017
</metadata>
<g transform="translate(0.000000,587.000000) scale(0.100000,-0.100000)"
fill="#000000" stroke="none">
<path d="M2397 5366 c-103 -28 -135 -75 -118 -169 10 -61 14 -100 12 -123 -1
-7 -34 -15 -83 -19 -214 -19 -505 -100 -711 -198 -470 -224 -747 -577 -863
-1102 -13 -60 -27 -120 -29 -132 -5 -19 -12 -23 -45 -23 -75 0 -129 -74 -146
-201 -5 -36 -12 -49 -30 -58 -13 -5 -31 -25 -41 -43 -16 -29 -18 -61 -18 -273
0 -233 1 -241 24 -289 14 -28 37 -56 56 -67 22 -13 36 -32 44 -59 18 -59 89
-130 130 -130 18 0 40 4 50 10 16 8 21 0 40 -73 13 -45 38 -125 58 -177 19
-52 36 -100 38 -106 2 -8 -8 -8 -36 0 -51 13 -153 -4 -222 -38 -122 -60 -213
-198 -223 -341 -14 -182 69 -334 228 -417 60 -32 68 -33 173 -33 103 0 114 2
178 32 117 56 214 165 248 281 7 23 15 42 18 42 3 0 35 -25 71 -56 102 -87
176 -137 294 -198 144 -74 137 -66 120 -129 -40 -154 -43 -413 -4 -562 45
-178 124 -285 236 -320 105 -33 273 -17 377 36 61 31 70 66 66 239 l-4 145
250 0 250 0 -5 -80 c-9 -142 -6 -231 9 -259 31 -58 183 -102 318 -93 112 7
179 32 231 87 56 57 116 182 138 285 25 119 23 340 -4 472 -12 55 -22 103 -22
106 0 3 47 30 106 61 132 70 203 118 321 218 l93 79 10 -26 c6 -15 10 -30 10
-34 0 -4 22 -43 50 -88 61 -99 121 -154 220 -202 72 -34 80 -36 180 -36 96 0
110 2 162 29 128 65 225 203 235 337 10 134 -31 243 -129 345 -83 87 -154 118
-268 118 -58 0 -97 -6 -124 -17 -22 -10 -41 -15 -43 -13 -2 2 9 31 26 64 17
33 48 111 70 173 21 63 42 122 46 131 6 14 15 16 49 12 36 -5 47 -2 75 22 19
16 44 51 56 79 13 28 41 68 63 90 56 57 67 114 66 340 -1 208 -10 253 -61 304
-30 30 -39 51 -56 121 -17 72 -26 91 -58 123 -33 33 -43 38 -76 35 -37 -3 -37
-3 -51 47 -126 467 -312 787 -581 1004 -275 221 -626 362 -996 401 -60 6 -111
13 -112 14 -2 2 2 48 8 104 15 128 6 155 -60 185 -58 26 -212 33 -284 13z
m217 -87 l39 -11 -6 -73 c-4 -40 -11 -84 -17 -99 -9 -26 -10 -26 -124 -26
-131 0 -122 -7 -132 109 l-7 79 34 10 c77 24 152 28 213 11z m274 -338 c352
-54 699 -200 862 -364 58 -59 193 -298 238 -422 19 -52 25 -98 13 -91 -20 13
-41 -20 -35 -53 4 -21 3 -31 -6 -31 -8 0 -9 -10 -5 -30 7 -30 -7 -42 -19 -17
-4 6 -4 -5 -2 -25 3 -25 0 -38 -10 -42 -8 -3 -14 -19 -14 -40 0 -26 -4 -33
-17 -32 -12 1 -21 -10 -27 -31 -8 -26 -16 -33 -40 -35 -25 -2 -32 -8 -34 -28
-2 -14 -7 -34 -12 -45 -5 -11 -10 -31 -12 -45 -2 -19 -8 -24 -26 -23 -14 2
-22 -3 -22 -12 0 -18 -16 -20 -24 -2 -4 8 -5 7 -4 -3 1 -8 -2 -27 -6 -42 -7
-25 -10 -26 -23 -12 -18 17 -49 14 -45 -4 3 -17 -51 -9 -56 8 -3 9 2 11 17 7
11 -3 21 -1 21 4 0 12 -27 11 -51 -1 -12 -7 -19 -7 -19 -1 0 6 -42 9 -102 8
-92 -2 -109 -5 -161 -31 -182 -93 -262 -325 -186 -543 24 -68 87 -145 132
-162 17 -7 107 -11 216 -11 185 0 189 0 226 25 47 33 54 27 14 -11 l-30 -29
-230 0 c-145 0 -229 -4 -230 -10 -1 -5 -1 -18 0 -27 2 -12 -3 -16 -13 -12 -9
3 -16 10 -16 16 0 5 -5 6 -12 2 -19 -12 -57 -14 -63 -3 -4 5 -1 9 4 9 6 0 11
5 11 12 0 6 -9 3 -21 -8 -11 -10 -18 -26 -16 -36 3 -10 1 -18 -3 -18 -5 0 -10
10 -12 23 l-3 22 -22 -22 c-13 -13 -35 -23 -49 -23 -15 0 -23 -4 -18 -11 4 -6
-1 -9 -13 -7 -11 2 -27 -3 -36 -11 -12 -9 -21 -10 -29 -4 -18 14 -58 23 -58
13 0 -5 6 -11 13 -13 7 -3 6 -6 -5 -6 -9 -1 -20 4 -23 9 -3 6 -11 10 -16 10
-6 0 -7 -4 -4 -10 3 -5 3 -10 -2 -11 -85 -6 -210 -10 -448 -13 -452 -7 -858
-17 -881 -21 -33 -7 -48 -53 -34 -106 38 -149 129 -317 225 -415 141 -143 409
-276 660 -329 240 -50 551 -17 785 84 176 76 301 169 412 310 58 72 133 208
158 284 6 21 14 37 16 34 2 -2 -7 -35 -20 -73 -152 -448 -649 -727 -1217 -684
-147 11 -315 53 -419 105 -25 13 -54 25 -65 27 -11 1 -22 5 -25 8 -19 21 -101
59 -117 54 -14 -5 -15 -4 -4 4 11 8 8 13 -17 26 -36 18 -42 19 -42 7 0 -5 10
-11 22 -14 12 -4 19 -9 16 -12 -3 -4 -15 -2 -26 4 -12 6 -28 11 -38 11 -9 0
-34 19 -56 42 -27 29 -38 36 -38 24 0 -9 -5 -14 -10 -11 -6 4 -8 10 -5 15 3 4
1 19 -4 32 -6 12 -10 17 -10 11 -1 -7 -5 -13 -10 -13 -5 0 -22 -5 -38 -11 -27
-10 -27 -11 -9 -25 18 -13 18 -14 2 -14 -32 0 -107 41 -117 64 -6 12 -26 31
-45 41 -34 18 -34 18 -58 -4 -19 -18 -39 -23 -107 -28 -45 -2 -93 -9 -107 -14
-20 -8 -23 -7 -18 7 8 22 -4 40 -15 23 -5 -9 -9 -10 -9 -3 0 17 -52 74 -68 74
-7 0 -10 5 -6 11 4 8 0 9 -15 4 -11 -3 -21 -2 -21 3 0 6 -9 8 -21 5 -12 -4
-25 0 -30 8 -5 8 -9 9 -9 2 0 -6 29 -68 65 -137 35 -69 63 -126 61 -126 -10 0
-90 128 -130 209 -90 179 -155 419 -182 679 -19 176 -14 585 10 753 40 286
134 549 264 734 213 302 566 512 1031 614 76 17 177 35 222 40 136 16 503 5
657 -18z m-2299 -1571 c-4 -74 -8 -191 -9 -260 -1 -69 -6 -134 -9 -144 -7 -19
-8 -19 -28 1 -28 28 -37 130 -30 322 6 169 17 218 50 223 12 2 25 2 28 -1 3
-4 2 -67 -2 -141z m2872 74 c60 -54 -36 -220 -139 -240 -100 -20 -155 67 -99
158 56 92 180 134 238 82z m-3049 -306 c-2 -95 -6 -204 -10 -243 -7 -69 -8
-70 -24 -45 -20 29 -35 252 -24 342 7 51 37 118 53 118 5 0 7 -78 5 -172z
m4258 125 c7 -16 15 -61 18 -102 4 -60 2 -73 -9 -69 -8 3 -19 32 -26 74 -7 38
-15 81 -17 97 -4 18 -1 27 8 27 7 0 19 -12 26 -27z m-1455 -541 c-3 -3 -11 0
-18 7 -9 10 -8 11 6 5 10 -3 15 -9 12 -12z m-89 -157 c11 -27 -6 -64 -34 -79
-40 -20 -188 -44 -342 -56 -283 -21 -838 -9 -989 21 -68 14 -101 45 -101 94
l0 35 730 0 c641 0 731 -2 736 -15z m-372 -366 c103 -26 167 -61 231 -124 41
-42 115 -156 115 -179 0 -24 -207 -92 -345 -112 -225 -34 -419 -18 -638 53
-107 34 -109 35 -102 61 3 15 21 50 39 77 93 140 219 214 426 249 49 9 194 -5
274 -25z m-2030 -171 c50 -15 112 -75 121 -117 4 -17 11 -31 17 -31 6 0 6 -6
-2 -15 -7 -8 -9 -15 -6 -15 4 0 -2 -10 -14 -22 -11 -12 -20 -30 -20 -40 0 -12
-11 -23 -30 -29 -16 -6 -30 -17 -30 -25 0 -8 -11 -19 -24 -24 -13 -5 -27 -13
-30 -18 -3 -6 -18 -13 -33 -17 -16 -3 -39 -17 -53 -30 -14 -12 -42 -26 -62
-29 -21 -4 -42 -14 -47 -23 -7 -13 -13 -14 -23 -6 -19 14 -58 23 -58 12 0 -24
-19 -5 -34 34 -32 84 -13 195 46 279 79 110 172 148 282 116z m462 0 c4 -6 -1
-17 -11 -25 -25 -17 -41 -17 -25 2 6 8 9 19 5 25 -3 5 1 10 9 10 8 0 18 -5 22
-12z m114 -4 c0 -8 -5 -12 -10 -9 -6 4 -8 11 -5 16 9 14 15 11 15 -7z m3224 4
c87 -26 199 -173 164 -215 -6 -7 -13 -11 -16 -8 -3 3 -10 -5 -16 -17 -7 -13
-23 -23 -41 -25 -16 -3 -37 -11 -46 -19 -8 -8 -18 -11 -22 -8 -3 3 -38 -10
-79 -30 -69 -33 -199 -63 -220 -50 -5 3 -6 14 -3 25 4 10 2 19 -4 19 -6 0 -8
6 -5 14 4 10 0 13 -13 10 -15 -4 -18 1 -18 30 0 29 3 33 17 25 26 -14 48 0 48
31 0 40 -37 51 -62 20 l-18 -22 0 23 c0 13 14 47 30 76 64 111 180 157 304
121z m-2781 -1068 c28 -26 36 -46 15 -35 -7 4 -6 1 2 -7 8 -7 16 -20 18 -27 2
-8 10 -20 19 -26 19 -14 12 -42 -13 -52 -15 -5 -35 14 -40 40 -4 20 -6 20 -14
2 -5 -11 -9 -42 -10 -70 l-1 -50 -14 38 c-16 47 -30 215 -20 247 7 23 8 23 20
-6 6 -16 24 -40 38 -54z m225 -196 c-15 -8 -34 -27 -42 -42 -14 -26 -15 -26
-16 -4 0 28 34 62 63 62 21 -1 21 -2 -5 -16z"/>
<path d="M1520 3522 c-72 -24 -125 -59 -178 -116 -141 -153 -139 -427 4 -567
l45 -44 232 -3 c229 -3 233 -3 267 20 48 32 106 112 121 167 19 66 16 207 -5
279 -34 110 -131 213 -241 255 -73 28 -177 31 -245 9z m128 -68 c51 -35 -1
-161 -92 -221 -59 -40 -133 -46 -166 -13 -24 24 -26 79 -6 118 50 95 200 161
264 116z"/>
<path d="M1635 2040 c4 -6 11 -8 16 -5 14 9 11 15 -7 15 -8 0 -12 -5 -9 -10z"/>
<path d="M670 1950 c-15 -28 4 -60 35 -60 14 0 29 8 35 20 15 28 -4 60 -35 60
-14 0 -29 -8 -35 -20z"/>
<path d="M4401 1956 c-7 -8 -10 -24 -6 -36 8 -25 62 -28 72 -4 14 38 -41 71
-66 40z"/>
<path d="M4815 5236 c-314 -73 -506 -265 -522 -522 -13 -187 63 -342 231 -479
l37 -30 -14 -65 c-9 -36 -18 -96 -21 -135 -4 -38 -9 -91 -12 -117 -3 -28 -2
-48 4 -48 5 0 56 46 113 103 57 57 126 119 153 137 l50 34 160 0 c155 1 164 2
255 34 151 52 255 125 333 229 158 215 137 477 -54 663 -78 77 -170 131 -288
171 -85 29 -109 32 -230 35 -91 3 -155 -1 -195 -10z m359 -96 c200 -51 336
-160 397 -319 31 -79 31 -224 1 -301 -45 -113 -160 -220 -299 -278 -112 -47
-275 -64 -393 -42 -50 10 -56 9 -93 -17 -22 -16 -73 -59 -113 -96 -62 -58 -72
-64 -64 -40 6 15 18 67 29 115 l19 87 -57 35 c-78 48 -146 123 -184 204 -30
64 -32 73 -32 187 0 109 2 125 27 177 67 143 193 238 383 288 99 27 276 27
379 0z"/>
<path d="M4970 4855 c-179 -73 -325 -138 -325 -145 0 -6 43 -37 95 -69 l95
-57 3 -110 c1 -60 7 -113 12 -118 7 -7 34 14 79 58 l70 69 96 -57 c53 -32 100
-54 105 -50 11 13 122 593 115 604 -3 6 -9 10 -13 9 -4 0 -153 -61 -332 -134z
m230 51 c0 -11 -321 -296 -332 -296 -19 1 -151 84 -150 94 0 5 108 53 239 107
267 110 243 100 243 95z m25 -245 c-26 -132 -50 -239 -54 -237 -49 26 -253
151 -257 157 -5 8 347 332 354 325 2 -2 -18 -112 -43 -245z m-301 -132 c20
-12 36 -24 36 -28 0 -4 -18 -25 -40 -46 l-40 -39 0 67 c0 37 2 67 4 67 3 0 21
-9 40 -21z"/>
</g>
</svg>
